<?xml version="1.0" encoding="UTF-8"?>
<!DOCTYPE svg PUBLIC "-//W3C//DTD SVG 1.1//EN" "http://www.w3.org/Graphics/SVG/1.1/DTD/svg11.dtd">
<!-- Creator: CorelDRAW X7 -->
<svg xmlns="http://www.w3.org/2000/svg" xml:space="preserve" width="11.7431in" height="3.70835in" version="1.1" style="shape-rendering:geometricPrecision; text-rendering:geometricPrecision; image-rendering:optimizeQuality; fill-rule:evenodd; clip-rule:evenodd"
viewBox="0 0 17438 5507"
 xmlns:xlink="http://www.w3.org/1999/xlink">
 <defs>
  <style type="text/css">
   <![CDATA[
    .fil4 {fill:black}
    .fil6 {fill:#0071BC}
    .fil7 {fill:#29ABE2}
    .fil11 {fill:#353630}
    .fil0 {fill:#68217A}
    .fil8 {fill:#B3B3B3}
    .fil1 {fill:#E44D26}
    .fil9 {fill:#E6E6E6}
    .fil3 {fill:#EBEBEB}
    .fil10 {fill:#F0DB4F}
    .fil2 {fill:#F16529}
    .fil5 {fill:white}
    .fil12 {fill:white;fill-rule:nonzero}
   ]]>
  </style>
 </defs>
 <g id="Layer_x0020_1">
  <metadata id="CorelCorpID_0Corel-Layer"/>
  <polygon class="fil0" points="0,0 17438,0 17438,5507 0,5507 "/>
  <g id="_2172112335616">
   <polygon class="fil1" points="9567,2031 9478,1036 10454,1036 10365,2031 9965,2142 "/>
   <polygon class="fil2" points="9966,2057 10289,1968 10365,1117 9966,1117 "/>
   <polygon class="fil3" points="9966,1486 9804,1486 9793,1361 9966,1361 9966,1239 9966,1239 9660,1239 9663,1272 9693,1609 9966,1609 "/>
   <polygon class="fil3" points="9966,1804 9965,1804 9829,1767 9821,1670 9755,1670 9698,1670 9715,1861 9965,1931 9966,1931 "/>
   <path class="fil4" d="M9569 765l62 0 0 62 57 0 0 -62 62 0 0 186 -62 0 0 -62 -57 0 0 62 -62 0 0 -186zm263 62l-55 0 0 -62 171 0 0 62 -54 0 0 124 -62 0 0 -124zm143 -62l65 0 40 65 40 -65 64 0 0 186 -61 0 0 -92 -43 66 -1 0 -43 -66 0 92 -61 0 0 -186 0 0zm240 0l62 0 0 125 88 0 0 61 -150 0 0 -186 0 0z"/>
   <polygon class="fil5" points="9966,1486 9966,1609 10116,1609 10102,1767 9966,1804 9966,1931 10216,1861 10218,1841 10246,1519 10249,1486 10216,1486 "/>
   <polygon class="fil5" points="9966,1239 9966,1315 9966,1361 9966,1361 10260,1361 10260,1361 10260,1361 10263,1334 10268,1272 10271,1239 "/>
   <polygon class="fil4" points="11897,854 11897,790 11745,790 11745,976 11897,976 11897,912 11809,912 11809,854 "/>
   <polygon class="fil4" points="12111,790 11960,790 11960,855 12023,912 11960,912 11960,976 12111,976 12111,914 12054,854 12111,854 "/>
   <polygon class="fil4" points="12331,790 12180,790 12180,855 12240,912 12180,912 12180,976 12331,976 12331,914 12271,854 12331,854 "/>
   <polygon class="fil6" points="11639,2056 11550,1060 12526,1060 12437,2056 12037,2167 "/>
   <polygon class="fil7" points="12039,2082 12361,1993 12437,1143 12039,1143 "/>
   <polygon class="fil8" points="11753,1509 11764,1631 12039,1509 12039,1387 "/>
   <polygon class="fil9" points="12343,1256 12039,1387 12039,1509 12333,1378 "/>
   <polygon class="fil9" points="12039,1828 12038,1828 11902,1792 11893,1694 11770,1694 11787,1886 12038,1956 12039,1955 "/>
   <polygon class="fil5" points="12039,1509 12039,1631 12188,1631 12174,1790 12039,1828 12039,1955 12289,1886 12322,1509 "/>
   <polygon class="fil9" points="12039,1509 11753,1509 11764,1631 12039,1631 "/>
   <polygon class="fil9" points="12039,1378 12039,1256 12038,1256 11732,1256 11743,1378 "/>
   <polygon class="fil5" points="12039,1256 12039,1377 12039,1378 12333,1378 12343,1256 "/>
   <rect class="fil10" x="13495" y="983" width="1071" height="1071"/>
   <path class="fil11" d="M14214 1819c22,35 50,61 100,61 41,0 68,-20 68,-49 0,-35 -28,-47 -73,-67l-26 -11c-72,-31 -120,-70 -120,-151 0,-76 57,-133 147,-133 64,0 110,22 143,80l-78 51c-18,-31 -36,-44 -65,-44 -30,0 -48,19 -48,44 0,30 18,42 62,61l25 10c85,37 134,74 134,158 0,91 -72,141 -167,141 -94,0 -154,-45 -184,-103l82 -48 0 0zm-355 9c16,28 30,52 65,52 33,0 53,-13 53,-63l0 -343 101 0 0 344c0,104 -61,151 -150,151 -81,0 -127,-41 -151,-91l82 -50 0 0z"/>
   <rect class="fil5" x="8390" y="933" width="15.2935" height="1131.91"/>
  </g>
  <path class="fil12" d="M2685 1757l0 -360c0,-9 2,-34 4,-75l-1 0c-7,20 -13,34 -18,45l-181 390 -11 0 -181 -388c-6,-13 -12,-29 -17,-48l-1 0c1,23 2,45 2,68l0 368 -35 0 0 -507 33 0 189 408c1,3 2,6 4,10 1,4 3,8 4,12 2,6 5,13 8,20l2 0 4 -11c0,-1 4,-12 12,-33l186 -406 31 0 0 507 -34 0z"/>
  <path id="1" class="fil12" d="M2987 1766c-52,0 -94,-17 -125,-52 -31,-35 -46,-80 -46,-136 0,-60 16,-107 48,-141 32,-34 75,-51 127,-51 52,0 93,17 123,51 30,33 45,80 45,140 0,56 -16,102 -46,137 -31,35 -73,52 -126,52zm3 -350c-43,0 -77,14 -102,43 -25,29 -38,69 -38,120 0,47 12,85 37,114 25,29 59,43 101,43 44,0 78,-14 101,-42 24,-29 36,-68 36,-118 0,-52 -12,-91 -36,-119 -23,-27 -56,-41 -99,-41z"/>
  <path id="2" class="fil12" d="M3505 1757l0 -66 -1 0c-12,23 -29,41 -52,55 -23,13 -49,20 -78,20 -45,0 -81,-16 -110,-49 -28,-32 -42,-77 -42,-135 0,-58 16,-105 46,-142 31,-36 71,-54 120,-54 54,0 93,22 116,67l1 0 0 -232 33 0 0 536 -33 0zm0 -220c0,-34 -10,-62 -32,-86 -21,-23 -50,-35 -86,-35 -38,0 -69,14 -94,44 -24,29 -37,69 -37,120 0,50 11,88 34,115 22,28 51,41 86,41 41,0 73,-13 95,-38 23,-26 34,-57 34,-94l0 -67z"/>
  <path id="3" class="fil12" d="M3662 1577c0,50 11,89 34,117 23,28 55,42 95,42 40,0 80,-15 119,-45l0 35c-38,27 -80,40 -126,40 -47,0 -84,-17 -113,-50 -29,-34 -43,-81 -43,-142 0,-53 15,-97 45,-134 30,-36 69,-54 117,-54 45,0 80,16 104,48 24,31 36,74 36,129l0 14 -268 0zm234 -29c-2,-42 -12,-74 -30,-97 -19,-24 -45,-35 -77,-35 -34,0 -62,11 -85,34 -22,23 -36,55 -41,98l233 0z"/>
  <path id="4" class="fil12" d="M4190 1429c-11,-8 -23,-12 -38,-12 -28,0 -52,15 -72,45 -19,29 -29,71 -29,125l0 170 -32 0 0 -362 32 0 0 80 2 0c8,-27 21,-49 39,-64 18,-15 39,-23 62,-23 14,0 26,2 36,6l0 35z"/>
  <path id="5" class="fil12" d="M4503 1757l0 -211c0,-87 -32,-130 -95,-130 -34,0 -63,13 -86,38 -22,26 -33,57 -33,95l0 208 -33 0 0 -362 33 0 0 66 1 0c27,-50 68,-75 124,-75 39,0 69,13 90,39 21,26 31,63 31,112l0 220 -32 0z"/>
  <path id="6" class="fil12" d="M5149 1757l-30 0 -79 -273c-2,-7 -4,-18 -6,-30l-1 0c-1,5 -3,15 -7,29l-89 274 -30 0 -110 -362 36 0 85 289c2,7 3,18 5,30l2 0c1,-7 3,-17 7,-30l92 -289 22 0 82 289c2,7 4,17 5,30l3 0c0,-7 2,-17 6,-30l86 -289 34 0 -113 362z"/>
  <path id="7" class="fil12" d="M5340 1577c0,50 12,89 35,117 23,28 54,42 94,42 41,0 80,-15 119,-45l0 35c-37,27 -79,40 -125,40 -47,0 -85,-17 -114,-50 -28,-34 -43,-81 -43,-142 0,-53 15,-97 45,-134 30,-36 70,-54 118,-54 45,0 79,16 103,48 24,31 36,74 36,129l0 14 -268 0zm234 -29c-1,-42 -11,-74 -30,-97 -18,-24 -44,-35 -77,-35 -34,0 -62,11 -84,34 -22,23 -36,55 -41,98l232 0z"/>
  <path id="8" class="fil12" d="M5732 1693l-1 0 0 64 -33 0 0 -536 33 0 0 249 1 0c13,-27 32,-48 56,-62 24,-15 51,-22 79,-22 46,0 82,16 108,48 26,31 39,74 39,129 0,61 -15,109 -45,147 -30,37 -69,56 -117,56 -54,0 -94,-24 -120,-73zm-1 -135l0 46c0,36 11,67 34,93 23,26 53,39 90,39 37,0 67,-16 90,-47 23,-32 35,-74 35,-125 0,-46 -11,-81 -32,-108 -21,-27 -49,-40 -85,-40 -42,0 -75,14 -98,42 -23,29 -34,62 -34,100z"/>
  <path id="9" class="fil12" d="M6518 1757l0 -72 -1 0c-12,24 -28,44 -50,59 -22,15 -47,22 -74,22 -34,0 -61,-10 -81,-29 -20,-19 -30,-44 -30,-73 0,-63 41,-102 125,-115l111 -16c0,-78 -29,-117 -87,-117 -40,0 -79,16 -117,48l0 -39c14,-11 32,-20 55,-27 23,-8 45,-12 65,-12 37,0 66,12 86,35 21,23 31,57 31,101l0 235 -33 0zm-99 -180c-38,5 -65,14 -80,26 -16,12 -23,32 -23,59 0,22 7,39 21,53 14,14 34,21 60,21 35,0 64,-13 87,-39 23,-25 34,-59 34,-99l0 -36 -99 15z"/>
  <path id="10" class="fil12" d="M6694 1693l-2 0 0 231 -32 0 0 -529 32 0 0 75 2 0c13,-27 31,-48 56,-62 24,-15 50,-22 79,-22 46,0 82,16 108,48 26,31 39,74 39,129 0,61 -15,109 -45,147 -29,37 -68,56 -117,56 -54,0 -94,-24 -120,-73zm-2 -135l0 46c0,36 12,67 35,93 23,26 53,39 90,39 37,0 67,-16 90,-47 23,-32 35,-74 35,-125 0,-46 -11,-81 -32,-108 -21,-27 -50,-40 -85,-40 -42,0 -75,14 -98,42 -23,29 -35,62 -35,100z"/>
  <path id="11" class="fil12" d="M7099 1693l-1 0 0 231 -33 0 0 -529 33 0 0 75 1 0c13,-27 32,-48 56,-62 24,-15 51,-22 80,-22 46,0 82,16 107,48 26,31 39,74 39,129 0,61 -15,109 -44,147 -30,37 -69,56 -117,56 -55,0 -95,-24 -121,-73zm-1 -135l0 46c0,36 11,67 34,93 23,26 53,39 90,39 37,0 68,-16 91,-47 23,-32 34,-74 34,-125 0,-46 -10,-81 -32,-108 -21,-27 -49,-40 -84,-40 -43,0 -75,14 -98,42 -23,29 -35,62 -35,100z"/>
  <path id="12" class="fil12" d="M7452 1741l0 -39c13,11 27,19 45,25 17,6 32,9 45,9 57,0 85,-23 85,-69 0,-16 -6,-30 -18,-41 -13,-12 -33,-23 -61,-35 -35,-16 -59,-31 -73,-47 -14,-16 -21,-36 -21,-59 0,-30 11,-53 33,-72 23,-18 51,-27 84,-27 31,0 57,6 80,19l0 37c-27,-17 -55,-26 -84,-26 -24,0 -43,6 -57,18 -15,13 -22,29 -22,49 0,17 4,31 13,42 10,10 30,23 61,37 38,17 64,32 78,47 14,14 21,34 21,58 0,28 -11,52 -32,71 -22,19 -52,28 -89,28 -35,0 -64,-8 -88,-25z"/>
 </g>
</svg>
