<?xml version="1.0" encoding="UTF-8"?>
<!DOCTYPE svg PUBLIC "-//W3C//DTD SVG 1.1//EN" "http://www.w3.org/Graphics/SVG/1.1/DTD/svg11.dtd">
<!-- Creator: CorelDRAW X7 -->
<svg xmlns="http://www.w3.org/2000/svg" xml:space="preserve" width="11.7431in" height="3.70835in" version="1.1" style="shape-rendering:geometricPrecision; text-rendering:geometricPrecision; image-rendering:optimizeQuality; fill-rule:evenodd; clip-rule:evenodd"
viewBox="0 0 16626 5250"
 xmlns:xlink="http://www.w3.org/1999/xlink">
 <defs>
  <style type="text/css">
   <![CDATA[
    .fil0 {fill:#7FBA00}
    .fil1 {fill:white;fill-rule:nonzero}
   ]]>
  </style>
 </defs>
 <g id="Layer_x0020_1">
  <metadata id="CorelCorpID_0Corel-Layer"/>
  <polygon class="fil0" points="0,0 16626,0 16626,5250 0,5250 "/>
  <path class="fil1" d="M3162 1651l-304 -412c-6,-8 -11,-16 -16,-25l-5 -7 -1 0c0,7 1,14 1,23l0 421 -36 0 0 -509 28 0 301 408c6,9 14,20 21,33l2 0c-1,-17 -2,-31 -2,-43l0 -398 36 0 0 509 -25 0z"/>
  <path id="1" class="fil1" d="M3318 1471c0,50 12,89 35,117 23,28 54,42 95,42 40,0 80,-15 119,-45l0 35c-38,27 -80,40 -126,40 -47,0 -85,-17 -114,-51 -29,-33 -43,-81 -43,-142 0,-53 15,-98 45,-134 30,-36 70,-55 118,-55 45,0 80,16 104,48 24,32 36,75 36,130l0 15 -269 0zm235 -30c-1,-42 -11,-75 -30,-98 -19,-23 -45,-35 -77,-35 -35,0 -63,12 -85,35 -23,22 -36,55 -41,98l233 0z"/>
  <path id="2" class="fil1" d="M3986 1651l-31 0 -79 -274c-2,-8 -4,-18 -6,-31l-1 0c-1,6 -3,16 -7,30l-89 275 -31 0 -110 -364 37 0 84 291c2,7 4,17 5,30l3 0c1,-7 3,-17 7,-30l92 -291 23 0 82 291c2,6 4,17 5,30l3 0c0,-7 2,-17 6,-30l86 -291 34 0 -113 364z"/>
  <path id="3" class="fil1" d="M9529 1651l0 -509 127 0c85,0 149,21 193,63 44,42 66,103 66,184 0,78 -23,141 -70,189 -48,49 -113,73 -196,73l-120 0zm35 -477l0 445 80 0c76,0 134,-20 174,-59 41,-39 61,-95 61,-169 0,-145 -76,-217 -228,-217l-87 0z"/>
  <path id="4" class="fil1" d="M10229 1651l0 -73 -1 0c-12,25 -28,45 -51,60 -22,14 -46,22 -73,22 -35,0 -62,-10 -82,-29 -20,-20 -30,-44 -30,-74 0,-63 41,-102 126,-115l111 -17c0,-78 -29,-117 -88,-117 -40,0 -79,16 -117,48l0 -39c14,-11 32,-20 55,-27 23,-8 45,-12 66,-12 37,0 66,12 86,35 21,23 31,57 31,101l0 237 -33 0zm-100 -181c-38,5 -65,14 -80,26 -15,13 -23,32 -23,60 0,21 7,39 21,53 15,14 35,21 60,21 35,0 64,-13 88,-39 23,-26 34,-59 34,-100l0 -36 -100 15z"/>
  <path id="5" class="fil1" d="M10515 1646c-17,8 -32,12 -47,12 -54,0 -81,-32 -81,-96l0 -245 -66 0 0 -30 66 0 0 -94c5,-2 11,-4 16,-6 6,-2 11,-3 17,-5l0 105 95 0 0 30 -95 0 0 240c0,25 4,43 11,55 8,11 22,17 41,17 13,0 28,-5 43,-14l0 31z"/>
  <path id="6" class="fil1" d="M10805 1651l0 -73 -1 0c-12,25 -29,45 -51,60 -22,14 -47,22 -74,22 -34,0 -62,-10 -82,-29 -20,-20 -30,-44 -30,-74 0,-63 42,-102 126,-115l112 -17c0,-78 -29,-117 -88,-117 -40,0 -79,16 -117,48l0 -39c13,-11 32,-20 55,-27 23,-8 45,-12 65,-12 38,0 67,12 87,35 21,23 31,57 31,101l0 237 -33 0zm-100 -181c-38,5 -65,14 -80,26 -16,13 -24,32 -24,60 0,21 8,39 22,53 14,14 34,21 60,21 35,0 64,-13 87,-39 23,-26 35,-59 35,-100l0 -36 -100 15z"/>
  <path id="7" class="fil1" d="M11595 1651l0 -362c0,-8 1,-33 4,-75l-1 0c-8,20 -14,34 -19,45l-181 392 -11 0 -182 -390c-6,-13 -12,-29 -17,-48l-2 0c2,23 3,45 3,68l0 370 -35 0 0 -509 32 0 190 410c2,2 3,6 4,10 2,4 3,8 5,12 2,6 5,13 7,20l2 0 4 -11c1,-1 5,-12 12,-34l188 -407 31 0 0 509 -34 0z"/>
  <path id="8" class="fil1" d="M11970 1651l0 -73 -1 0c-12,25 -29,45 -51,60 -22,14 -47,22 -74,22 -34,0 -62,-10 -82,-29 -20,-20 -30,-44 -30,-74 0,-63 42,-102 126,-115l112 -17c0,-78 -29,-117 -88,-117 -40,0 -79,16 -117,48l0 -39c13,-11 32,-20 55,-27 23,-8 45,-12 65,-12 38,0 67,12 87,35 21,23 31,57 31,101l0 237 -33 0zm-100 -181c-38,5 -65,14 -80,26 -16,13 -24,32 -24,60 0,21 8,39 22,53 14,14 34,21 60,21 35,0 64,-13 87,-39 23,-26 35,-59 35,-100l0 -36 -100 15z"/>
  <path id="9" class="fil1" d="M12093 1635l0 -39c13,10 28,19 45,25 18,6 33,9 46,9 57,0 85,-23 85,-70 0,-16 -6,-30 -19,-41 -12,-12 -33,-23 -61,-35 -35,-15 -59,-31 -73,-47 -14,-17 -21,-36 -21,-60 0,-29 11,-53 34,-71 22,-19 50,-28 83,-28 32,0 58,7 81,20l0 37c-27,-18 -55,-27 -84,-27 -24,0 -43,6 -58,19 -15,12 -22,28 -22,48 0,18 4,32 14,42 9,11 29,24 61,38 38,17 64,32 78,47 14,15 21,34 21,58 0,29 -11,53 -32,72 -22,19 -52,28 -90,28 -35,0 -64,-8 -88,-25z"/>
  <polygon id="10" class="fil1" points="12603,1651 12429,1471 12427,1471 12427,1651 12395,1651 12395,1112 12427,1112 12427,1460 12429,1460 12594,1287 12636,1287 12464,1463 12650,1651 "/>
  <path id="11" class="fil1" d="M12733 1196c-7,0 -13,-3 -18,-8 -6,-5 -8,-12 -8,-20 0,-8 2,-14 8,-19 5,-5 12,-7 18,-7 8,0 14,2 20,7 5,4 8,11 8,19 0,7 -3,14 -8,19 -5,6 -12,9 -20,9zm-16 455l0 -364 33 0 0 364 -33 0z"/>
  <path id="12" class="fil1" d="M13114 1651l0 -212c0,-87 -32,-131 -95,-131 -35,0 -63,13 -86,39 -22,25 -34,57 -34,95l0 209 -32 0 0 -364 32 0 0 66 2 0c26,-50 68,-75 124,-75 39,0 69,13 90,40 21,26 32,63 32,112l0 221 -33 0z"/>
  <path id="13" class="fil1" d="M13547 1624c0,68 -15,119 -45,150 -30,32 -76,48 -139,48 -35,0 -71,-9 -108,-28l0 -34c38,21 74,32 109,32 100,0 150,-53 150,-159l0 -47 -1 0c-29,49 -72,74 -131,74 -45,0 -82,-16 -110,-49 -28,-32 -42,-77 -42,-135 0,-59 15,-106 46,-143 30,-36 70,-55 120,-55 54,0 93,22 117,67l1 0 0 -58 33 0 0 337zm-33 -197c0,-32 -11,-60 -32,-84 -22,-23 -50,-35 -85,-35 -40,0 -72,15 -97,45 -24,30 -36,70 -36,120 0,49 11,88 33,116 23,27 52,41 89,41 39,0 70,-13 93,-38 24,-25 35,-56 35,-93l0 -72z"/>
  <path id="14" class="fil1" d="M4354 1630l0 -70c8,7 18,14 29,19 11,6 23,11 36,15 12,4 25,7 37,9 13,2 24,3 35,3 37,0 64,-7 82,-21 18,-13 27,-33 27,-58 0,-14 -3,-26 -9,-36 -6,-10 -14,-20 -25,-28 -10,-9 -23,-17 -38,-24 -14,-8 -30,-16 -47,-25 -17,-9 -34,-18 -49,-27 -16,-9 -29,-19 -41,-31 -11,-11 -20,-23 -26,-37 -7,-14 -10,-31 -10,-50 0,-23 5,-43 15,-60 10,-18 24,-32 40,-43 17,-11 36,-19 57,-25 21,-5 43,-8 65,-8 50,0 87,6 110,18l0 67c-31,-21 -69,-31 -116,-31 -13,0 -26,1 -39,4 -13,3 -25,7 -35,13 -10,7 -19,15 -25,24 -7,10 -10,22 -10,36 0,13 3,24 8,34 4,9 12,18 21,25 10,8 21,16 35,23 13,8 29,16 47,24 18,9 35,19 52,29 16,10 30,21 43,33 12,12 22,25 29,40 7,15 11,31 11,50 0,25 -5,47 -15,64 -10,18 -23,32 -40,43 -16,11 -36,18 -57,23 -22,5 -45,8 -69,8 -8,0 -18,-1 -30,-2 -12,-2 -24,-4 -36,-6 -13,-3 -24,-6 -35,-9 -11,-4 -20,-8 -27,-13z"/>
  <path id="15" class="fil1" d="M4970 1660c-72,0 -130,-24 -174,-72 -43,-47 -65,-109 -65,-186 0,-82 22,-147 66,-196 45,-49 105,-73 181,-73 71,0 127,24 170,71 43,47 65,109 65,186 0,83 -22,149 -66,197 -11,12 -22,22 -34,30l143 103 -108 0 -96 -72c-25,8 -52,12 -82,12zm4 -473c-53,0 -97,19 -130,58 -34,39 -50,89 -50,152 0,63 16,113 48,152 33,38 76,57 128,57 56,0 100,-18 132,-55 32,-36 48,-87 48,-153 0,-67 -15,-119 -47,-156 -31,-37 -74,-55 -129,-55z"/>
  <polygon id="16" class="fil1" points="5577,1651 5313,1651 5313,1142 5373,1142 5373,1597 5577,1597 "/>
  <polygon id="17" class="fil1" points="5902,1822 5849,1822 5849,1095 5902,1095 "/>
  <path id="18" class="fil1" d="M6359 1468c0,61 -13,108 -39,141 -25,34 -60,51 -102,51 -20,0 -37,-3 -49,-9l0 -59c12,9 29,14 49,14 54,0 81,-46 81,-137l0 -327 60 0 0 326z"/>
  <path id="19" class="fil1" d="M6464 1630l0 -70c8,7 18,14 29,19 11,6 23,11 36,15 12,4 25,7 37,9 13,2 24,3 35,3 37,0 64,-7 82,-21 18,-13 27,-33 27,-58 0,-14 -3,-26 -9,-36 -6,-10 -14,-20 -25,-28 -10,-9 -23,-17 -37,-24 -15,-8 -31,-16 -48,-25 -17,-9 -34,-18 -49,-27 -16,-9 -29,-19 -40,-31 -12,-11 -21,-23 -27,-37 -7,-14 -10,-31 -10,-50 0,-23 5,-43 15,-60 10,-18 24,-32 40,-43 17,-11 36,-19 57,-25 21,-5 43,-8 65,-8 50,0 87,6 110,18l0 67c-30,-21 -69,-31 -116,-31 -13,0 -26,1 -39,4 -13,3 -25,7 -35,13 -10,7 -19,15 -25,24 -6,10 -10,22 -10,36 0,13 3,24 8,34 5,9 12,18 21,25 10,8 21,16 35,23 13,8 29,16 47,24 18,9 35,19 52,29 16,10 31,21 43,33 12,12 22,25 29,40 7,15 11,31 11,50 0,25 -5,47 -15,64 -10,18 -23,32 -40,43 -16,11 -36,18 -57,23 -22,5 -45,8 -69,8 -8,0 -18,-1 -30,-2 -12,-2 -24,-4 -36,-6 -13,-3 -24,-6 -35,-9 -11,-4 -20,-8 -27,-13z"/>
  <path id="20" class="fil1" d="M7080 1660c-72,0 -130,-24 -174,-72 -43,-47 -65,-109 -65,-186 0,-82 22,-147 67,-196 44,-49 104,-73 181,-73 70,0 127,24 169,71 43,47 65,109 65,186 0,83 -22,149 -66,197 -44,48 -103,73 -177,73zm4 -473c-53,0 -97,19 -130,58 -34,39 -50,89 -50,152 0,63 16,113 49,152 32,38 75,57 127,57 56,0 100,-18 132,-55 32,-36 48,-87 48,-153 0,-67 -15,-119 -46,-156 -32,-37 -75,-55 -130,-55z"/>
  <path id="21" class="fil1" d="M7834 1651l-73 0 -263 -406c-6,-10 -12,-21 -16,-32l-2 0c2,11 3,34 3,70l0 368 -60 0 0 -509 78 0 255 399c10,17 17,28 20,34l2 0c-3,-14 -4,-39 -4,-75l0 -358 60 0 0 509z"/>
  <path id="22" class="fil1" d="M8532 1651l-71 0 -85 -143c-8,-13 -16,-24 -23,-34 -8,-9 -15,-17 -23,-23 -7,-6 -16,-10 -25,-13 -8,-2 -18,-4 -30,-4l-49 0 0 217 -59 0 0 -509 152 0c22,0 43,2 61,8 19,6 36,14 49,25 14,12 25,26 33,43 8,17 12,36 12,59 0,18 -3,34 -8,49 -6,15 -13,28 -23,40 -10,11 -22,21 -36,29 -14,9 -29,15 -46,19l0 2c8,4 16,8 22,13 6,5 12,10 18,17 5,7 11,14 17,23 5,8 11,18 18,29l96 153zm-306 -455l0 184 81 0c15,0 29,-2 42,-6 12,-5 23,-11 33,-20 9,-8 16,-19 21,-31 6,-12 8,-26 8,-41 0,-27 -9,-48 -26,-64 -18,-15 -44,-22 -77,-22l-82 0z"/>
  <polygon id="23" class="fil1" points="8866,1651 8602,1651 8602,1142 8662,1142 8662,1597 8866,1597 "/>
  <path id="24" class="fil1" d="M8920 1630l0 -70c9,7 18,14 29,19 12,6 24,11 36,15 12,4 25,7 37,9 13,2 25,3 35,3 37,0 64,-7 83,-21 18,-13 27,-33 27,-58 0,-14 -3,-26 -9,-36 -6,-10 -15,-20 -25,-28 -11,-9 -24,-17 -38,-24 -15,-8 -30,-16 -47,-25 -18,-9 -35,-18 -50,-27 -15,-9 -29,-19 -40,-31 -12,-11 -20,-23 -27,-37 -7,-14 -10,-31 -10,-50 0,-23 5,-43 16,-60 10,-18 23,-32 40,-43 16,-11 35,-19 56,-25 21,-5 43,-8 65,-8 50,0 87,6 110,18l0 67c-30,-21 -69,-31 -116,-31 -13,0 -26,1 -39,4 -13,3 -25,7 -35,13 -10,7 -18,15 -25,24 -6,10 -9,22 -9,36 0,13 2,24 7,34 5,9 12,18 22,25 9,8 21,16 34,23 14,8 30,16 47,24 19,9 36,19 52,29 17,10 31,21 43,33 12,12 22,25 29,40 8,15 11,31 11,50 0,25 -5,47 -14,64 -10,18 -24,32 -40,43 -17,11 -36,18 -58,23 -22,5 -45,8 -69,8 -8,0 -18,-1 -30,-2 -12,-2 -24,-4 -36,-6 -12,-3 -24,-6 -35,-9 -11,-4 -20,-8 -27,-13z"/>
 </g>
</svg>
