<?xml version="1.0" encoding="UTF-8"?>
<!DOCTYPE svg PUBLIC "-//W3C//DTD SVG 1.1//EN" "http://www.w3.org/Graphics/SVG/1.1/DTD/svg11.dtd">
<!-- Creator: CorelDRAW X7 -->
<svg xmlns="http://www.w3.org/2000/svg" xml:space="preserve" width="11.7431in" height="3.70835in" version="1.1" style="shape-rendering:geometricPrecision; text-rendering:geometricPrecision; image-rendering:optimizeQuality; fill-rule:evenodd; clip-rule:evenodd"
viewBox="0 0 18376 5803"
 xmlns:xlink="http://www.w3.org/1999/xlink">
 <defs>
  <style type="text/css">
   <![CDATA[
    .fil0 {fill:#56B4D9}
    .fil1 {fill:white}
    .fil2 {fill:white;fill-rule:nonzero}
   ]]>
  </style>
 </defs>
 <g id="Layer_x0020_1">
  <metadata id="CorelCorpID_0Corel-Layer"/>
  <polygon class="fil0" points="0,0 18376,0 18376,5803 0,5803 "/>
  <g id="_2172112272768">
   <path class="fil1" d="M7974 999l-16 0 0 1193 16 0 0 -1193zm1347 872l-29 0 -116 -390c-6,-20 -9,-37 -10,-49l-1 0c-1,10 -4,26 -11,48l-123 391 -30 0 -154 -519 40 0 118 416c6,19 9,34 12,46l1 0c1,-9 6,-24 13,-46l128 -416 18 0 118 416c5,19 9,35 11,46l1 0c2,-7 3,-14 6,-23l122 -439 38 0 -152 519zm233 -464c-7,0 -13,-2 -19,-8 -5,-5 -8,-12 -8,-20 0,-8 3,-14 8,-19 6,-5 12,-8 19,-8 8,0 14,3 20,7 6,5 8,12 8,20 0,8 -2,14 -8,20 -5,5 -12,8 -20,8l0 0zm-16 464l0 -370 33 0 0 370 -33 0zm391 0l0 -215c0,-90 -32,-134 -97,-134 -35,0 -65,13 -88,39 -23,26 -34,59 -34,97l0 213 -33 0 0 -370 33 0 0 67 1 0c27,-51 70,-76 127,-76 40,0 71,13 92,40 21,26 32,64 32,114l0 225 -33 0zm394 0l0 -67 -1 0c-12,23 -30,42 -54,56 -23,13 -50,20 -80,20 -45,0 -83,-16 -111,-50 -29,-33 -44,-79 -44,-138 0,-59 16,-108 48,-145 31,-37 72,-55 122,-55 56,0 95,22 119,68l1 0 0 -238 34 0 0 549 -34 0zm0 -225c0,-35 -11,-64 -32,-88 -22,-24 -52,-36 -89,-36 -38,0 -71,15 -96,45 -25,29 -38,70 -38,123 0,51 12,90 34,118 23,28 53,42 88,42 43,0 75,-13 99,-39 23,-27 34,-58 34,-96l0 -69zm288 234c-54,0 -97,-17 -128,-53 -32,-36 -48,-82 -48,-139 0,-61 17,-110 50,-144 33,-35 76,-52 130,-52 53,0 94,17 125,51 31,35 46,83 46,144 0,57 -16,104 -47,140 -31,36 -74,53 -128,53l0 0zm2 -358c-43,0 -78,15 -104,44 -26,30 -39,70 -39,123 0,48 13,87 38,117 25,29 60,44 104,44 45,0 79,-15 103,-43 24,-29 36,-70 36,-121 0,-53 -12,-93 -36,-122 -24,-28 -58,-42 -102,-42l0 0zm566 349l-31 0 -81 -279c-2,-8 -4,-18 -6,-31l-2 0c0,5 -2,15 -7,30l-90 280 -31 0 -112 -370 37 0 86 295c2,8 4,18 5,32l3 0c0,-7 3,-18 7,-32l94 -295 23 0 84 295c2,7 3,18 5,32l3 0c0,-7 2,-18 6,-32l88 -295 34 0 -115 370 0 0zm155 -16l0 -40c12,11 28,19 46,26 17,6 33,9 46,9 58,0 87,-24 87,-71 0,-17 -6,-31 -19,-42 -13,-12 -34,-24 -62,-36 -36,-16 -61,-32 -75,-48 -14,-17 -22,-37 -22,-60 0,-31 12,-55 35,-74 23,-18 51,-27 85,-27 32,0 59,6 82,19l0 38c-27,-18 -56,-27 -85,-27 -25,0 -44,6 -59,19 -15,13 -23,29 -23,49 0,18 5,32 14,43 10,11 30,24 63,38 38,17 65,34 79,48 15,15 22,35 22,60 0,29 -11,53 -33,73 -22,19 -53,28 -92,28 -35,0 -65,-8 -89,-25l0 0zm1292 16l0 -519 36 0 0 487 208 0 0 32 -244 0zm336 -464c-7,0 -14,-2 -19,-8 -6,-5 -9,-12 -9,-20 0,-8 3,-14 9,-19 5,-5 12,-8 19,-8 7,0 14,3 19,7 6,5 9,12 9,20 0,8 -3,14 -8,20 -6,5 -13,8 -20,8l0 0zm-17 464l0 -370 34 0 0 370 -34 0zm391 0l0 -215c0,-90 -32,-134 -96,-134 -36,0 -65,13 -88,39 -23,26 -35,59 -35,97l0 213 -33 0 0 -370 33 0 0 67 2 0c27,-51 69,-76 127,-76 40,0 70,13 92,40 21,26 31,64 31,114l0 225 -33 0zm376 0l0 -67 -1 0c-26,51 -66,76 -120,76 -87,0 -131,-55 -131,-165l0 -214 34 0 0 206c0,50 8,86 25,109 16,23 42,34 78,34 34,0 62,-13 83,-38 22,-25 32,-59 32,-101l0 -210 34 0 0 370 -34 0zm254 -181l121 181 -43 0 -97 -156 -2 0 -13 21c-1,2 -4,6 -6,9l-82 126 -40 0 123 -181 -121 -189 39 0 82 132c11,18 18,28 20,32l1 0 19 -30 86 -134 39 0 -126 189 0 0zm1381 190c-74,0 -132,-24 -176,-73 -43,-49 -65,-112 -65,-190 0,-83 22,-149 67,-199 45,-50 106,-75 183,-75 70,0 127,24 170,72 44,48 65,111 65,189 0,86 -22,153 -66,203 -45,49 -104,73 -178,73l0 0zm3 -504c-60,0 -110,22 -149,66 -39,43 -58,100 -58,171 0,72 18,129 55,171 37,42 86,63 148,63 64,0 115,-21 152,-62 38,-42 56,-101 56,-175 0,-74 -18,-131 -54,-172 -37,-41 -87,-62 -150,-62l0 0zm318 477l0 -41c37,24 75,35 113,35 40,0 71,-8 92,-25 21,-17 32,-40 32,-70 0,-27 -8,-48 -22,-64 -14,-16 -44,-37 -91,-64 -53,-31 -86,-57 -100,-77 -14,-21 -21,-45 -21,-72 0,-36 14,-68 42,-93 29,-26 67,-39 114,-39 31,0 62,6 93,16l0 38c-30,-14 -63,-21 -97,-21 -36,0 -63,9 -84,27 -21,18 -31,40 -31,68 0,26 7,48 21,63 14,16 45,37 92,64 48,28 80,52 96,74 16,21 24,46 24,73 0,40 -13,73 -41,98 -28,25 -67,37 -117,37 -18,0 -39,-2 -62,-8 -23,-6 -41,-12 -53,-19l0 0zm653 18l-120 -198c-7,-12 -14,-24 -19,-36l-2 0c-6,13 -13,25 -21,36l-121 198 -43 0 164 -261 -154 -258 43 0 116 195c6,10 12,22 19,35l1 0 19 -35 116 -195 41 0 -155 257 159 262 -43 0z"/>
   <path class="fil2" d="M2012 1859l0 -74c8,8 18,14 30,20 12,6 24,11 37,15 13,4 26,7 40,10 13,2 25,3 36,3 39,0 67,-7 86,-21 19,-15 29,-35 29,-62 0,-14 -3,-27 -10,-38 -6,-10 -15,-20 -26,-29 -11,-9 -24,-17 -40,-25 -15,-8 -31,-17 -49,-26 -19,-9 -36,-19 -52,-28 -16,-10 -30,-21 -42,-33 -12,-11 -22,-24 -28,-39 -7,-15 -11,-32 -11,-52 0,-25 6,-46 16,-64 11,-18 25,-33 42,-44 18,-12 38,-21 60,-26 22,-6 45,-9 68,-9 53,0 91,6 115,19l0 71c-31,-22 -72,-33 -121,-33 -14,0 -28,1 -41,4 -14,3 -26,8 -37,14 -11,6 -19,15 -26,25 -7,10 -10,23 -10,37 0,14 2,26 8,36 5,10 12,19 22,27 10,8 22,16 36,24 15,7 31,16 50,25 19,9 37,19 54,30 17,10 32,22 45,34 13,13 23,27 31,43 8,15 11,33 11,52 0,27 -5,49 -15,67 -10,19 -24,34 -42,45 -17,11 -38,20 -60,25 -23,5 -47,7 -73,7 -8,0 -18,0 -31,-2 -12,-1 -25,-3 -38,-6 -13,-2 -25,-6 -37,-9 -11,-4 -20,-9 -27,-13z"/>
   <path id="1" class="fil2" d="M2657 1889c-75,0 -136,-25 -182,-75 -45,-49 -68,-114 -68,-194 0,-87 23,-155 70,-206 46,-51 110,-77 189,-77 74,0 133,25 178,75 46,49 68,114 68,195 0,87 -23,156 -69,206 -11,12 -23,23 -35,32l150 107 -114 0 -100 -75c-26,8 -55,12 -87,12zm5 -495c-56,0 -102,20 -137,60 -35,41 -52,94 -52,160 0,66 17,119 51,159 34,40 79,60 133,60 59,0 105,-19 139,-57 34,-39 51,-92 51,-161 0,-71 -17,-125 -49,-163 -33,-39 -79,-58 -136,-58z"/>
   <polygon id="2" class="fil2" points="3294,1880 3017,1880 3017,1346 3080,1346 3080,1824 3294,1824 "/>
   <path id="3" class="fil2" d="M3561 1859l0 -74c8,8 18,14 30,20 12,6 24,11 37,15 13,4 26,7 40,10 13,2 25,3 36,3 39,0 67,-7 86,-21 19,-15 29,-35 29,-62 0,-14 -3,-27 -10,-38 -6,-10 -15,-20 -26,-29 -11,-9 -24,-17 -40,-25 -15,-8 -31,-17 -49,-26 -19,-9 -36,-19 -52,-28 -16,-10 -30,-21 -42,-33 -12,-11 -22,-24 -28,-39 -7,-15 -11,-32 -11,-52 0,-25 6,-46 16,-64 11,-18 25,-33 42,-44 18,-12 38,-21 60,-26 22,-6 45,-9 68,-9 53,0 91,6 115,19l0 71c-31,-22 -72,-33 -121,-33 -14,0 -28,1 -41,4 -14,3 -26,8 -37,14 -11,6 -19,15 -26,25 -7,10 -10,23 -10,37 0,14 2,26 8,36 5,10 12,19 22,27 10,8 22,16 36,24 15,7 31,16 50,25 19,9 37,19 54,30 17,10 32,22 45,34 13,13 23,27 31,43 8,15 11,33 11,52 0,27 -5,49 -15,67 -10,19 -24,34 -42,45 -17,11 -38,20 -60,25 -23,5 -47,7 -73,7 -8,0 -18,0 -31,-2 -12,-1 -25,-3 -38,-6 -13,-2 -25,-6 -37,-9 -11,-4 -20,-9 -27,-13z"/>
   <path id="4" class="fil2" d="M4289 1705l-269 0c1,42 13,75 34,98 22,23 52,35 91,35 43,0 82,-14 118,-43l0 58c-33,24 -78,36 -133,36 -54,0 -96,-17 -127,-52 -31,-34 -46,-83 -46,-146 0,-59 17,-108 50,-145 34,-37 76,-56 126,-56 50,0 88,16 115,48 28,33 41,77 41,135l0 32zm-62 -52c0,-35 -9,-63 -26,-82 -16,-20 -40,-30 -70,-30 -28,0 -53,11 -73,31 -20,21 -32,48 -37,81l206 0z"/>
   <path id="5" class="fil2" d="M4581 1561c-11,-8 -26,-13 -46,-13 -26,0 -48,13 -66,37 -17,25 -26,58 -26,101l0 194 -61 0 0 -381 61 0 0 78 2 0c8,-26 22,-47 39,-62 18,-15 38,-23 60,-23 16,0 28,2 37,5l0 64z"/>
   <path id="6" class="fil2" d="M4947 1499l-152 381 -60 0 -144 -381 67 0 97 277c7,20 11,38 13,53l1 0c3,-19 7,-36 12,-51l102 -279 64 0z"/>
   <path id="7" class="fil2" d="M5319 1705l-269 0c1,42 12,75 34,98 22,23 52,35 91,35 43,0 82,-14 118,-43l0 58c-33,24 -78,36 -133,36 -54,0 -96,-17 -127,-52 -31,-34 -46,-83 -46,-146 0,-59 17,-108 50,-145 34,-37 76,-56 126,-56 50,0 88,16 115,48 28,33 41,77 41,135l0 32zm-62 -52c0,-35 -9,-63 -26,-82 -16,-20 -40,-30 -70,-30 -28,0 -53,11 -73,31 -20,21 -32,48 -37,81l206 0z"/>
   <path id="8" class="fil2" d="M5611 1561c-11,-8 -26,-13 -46,-13 -26,0 -48,13 -66,37 -17,25 -26,58 -26,101l0 194 -61 0 0 -381 61 0 0 78 2 0c8,-26 21,-47 39,-62 18,-15 38,-23 60,-23 16,0 28,2 37,5l0 64z"/>
   <path id="9" class="fil2" d="M6112 1486c0,-16 -2,-31 -7,-43 -6,-12 -13,-22 -21,-30 -9,-8 -20,-14 -31,-18 -12,-4 -25,-6 -39,-6 -12,0 -24,1 -35,5 -12,3 -23,7 -34,13 -10,6 -21,13 -31,21 -10,8 -19,16 -28,26l0 -65c17,-17 36,-30 58,-39 21,-8 47,-13 77,-13 22,0 42,3 61,10 19,6 35,15 48,27 14,13 25,28 33,45 7,18 11,39 11,62 0,21 -2,40 -7,57 -5,17 -12,34 -22,49 -10,15 -22,29 -37,43 -15,14 -32,28 -53,43 -25,18 -45,33 -61,46 -17,12 -30,24 -39,35 -10,11 -17,22 -20,33 -4,11 -6,24 -6,39l266 0 0 54 -330 0 0 -26c0,-23 3,-43 8,-60 5,-18 13,-34 24,-50 12,-16 27,-31 45,-47 19,-16 41,-33 68,-53 19,-14 36,-27 49,-40 13,-12 23,-25 31,-38 8,-12 14,-25 17,-38 4,-13 5,-27 5,-42z"/>
   <path id="10" class="fil2" d="M6616 1611c0,45 -4,84 -12,119 -8,34 -20,64 -35,87 -15,24 -34,42 -57,54 -22,13 -47,19 -75,19 -27,0 -51,-6 -72,-18 -21,-12 -39,-29 -53,-52 -15,-22 -26,-50 -33,-83 -7,-33 -11,-71 -11,-113 0,-47 4,-88 12,-124 7,-36 19,-65 34,-90 15,-24 34,-42 56,-55 23,-12 49,-18 78,-18 112,0 168,91 168,274zm-63 6c0,-152 -36,-228 -108,-228 -76,0 -115,77 -115,232 0,144 38,217 113,217 73,0 110,-74 110,-221z"/>
   <path id="11" class="fil2" d="M6917 1880l-61 0 0 -461c-5,4 -12,10 -21,16 -9,6 -19,12 -30,18 -12,6 -24,11 -36,17 -13,5 -25,9 -37,12l0 -62c13,-4 28,-9 43,-15 15,-6 30,-13 44,-21 15,-8 28,-16 41,-25 13,-8 24,-17 34,-25l23 0 0 546z"/>
   <path id="12" class="fil2" d="M7435 1381c-8,15 -18,32 -30,53 -11,21 -24,45 -36,72 -13,26 -27,54 -40,85 -14,30 -26,61 -38,93 -11,33 -22,65 -30,99 -9,33 -16,65 -20,97l-65 0c4,-31 11,-64 20,-97 10,-33 20,-66 32,-98 12,-32 24,-62 38,-92 13,-29 26,-57 38,-81 12,-25 24,-47 34,-66 10,-19 19,-34 25,-45l-268 0 0 -55 340 0 0 35z"/>
  </g>
 </g>
</svg>
